<svg id="svg" version="1.1" xmlns="http://www.w3.org/2000/svg" xmlns:xlink="http://www.w3.org/1999/xlink" width="400" height="400" viewBox="0, 0, 400,400"><g id="svgg"><path id="path0" d="M92.800 88.188 L 92.800 117.584 170.718 117.692 C 241.826 117.791,248.722 117.857,249.626 118.449 C 250.171 118.807,251.394 119.230,252.343 119.390 C 254.990 119.838,258.893 122.530,261.317 125.580 C 263.852 128.769,264.292 129.415,264.600 130.392 C 264.772 130.938,265.251 131.842,265.664 132.401 C 266.078 132.961,266.528 134.404,266.664 135.609 C 266.800 136.814,267.197 138.340,267.544 139.000 C 268.373 140.571,268.470 149.327,267.674 150.722 C 267.385 151.229,266.972 152.741,266.756 154.082 C 266.540 155.423,266.011 156.968,265.582 157.514 C 265.152 158.061,264.800 158.690,264.800 158.913 C 264.800 161.053,257.835 168.133,255.215 168.657 C 254.547 168.791,254.000 169.014,254.000 169.154 C 254.000 170.574,253.454 170.594,207.600 170.818 C 169.235 171.006,162.441 171.126,159.000 171.681 C 156.800 172.036,153.129 172.454,150.843 172.610 C 148.007 172.804,146.290 173.122,145.443 173.610 C 144.759 174.003,143.055 174.452,141.656 174.607 C 140.053 174.785,138.848 175.152,138.399 175.601 C 138.007 175.993,136.782 176.437,135.676 176.590 C 134.518 176.749,133.380 177.180,132.996 177.604 C 132.629 178.010,131.622 178.461,130.759 178.607 C 129.821 178.765,129.025 179.179,128.781 179.636 C 128.556 180.056,128.043 180.400,127.641 180.400 C 127.239 180.400,126.231 180.940,125.400 181.600 C 124.569 182.260,123.654 182.800,123.365 182.800 C 123.076 182.800,122.696 183.044,122.520 183.342 C 122.344 183.639,121.815 184.085,121.346 184.331 C 120.322 184.868,118.680 186.195,117.177 187.700 C 116.573 188.305,115.812 188.800,115.486 188.800 C 115.160 188.800,114.796 189.173,114.676 189.630 C 114.557 190.086,114.086 190.557,113.630 190.676 C 113.173 190.796,112.800 191.142,112.800 191.446 C 112.800 191.750,112.055 192.764,111.145 193.700 C 110.235 194.635,109.063 196.075,108.540 196.900 C 108.018 197.725,107.412 198.400,107.195 198.400 C 106.978 198.400,106.800 198.679,106.800 199.019 C 106.800 199.360,106.378 200.035,105.862 200.519 C 105.346 201.004,104.804 201.890,104.657 202.489 C 104.510 203.088,104.058 203.898,103.652 204.289 C 103.245 204.680,102.793 205.500,102.646 206.110 C 102.500 206.721,102.049 207.551,101.645 207.955 C 101.240 208.360,100.785 209.355,100.632 210.168 C 100.480 210.980,100.029 211.971,99.631 212.369 C 99.233 212.767,98.784 213.915,98.633 214.918 C 98.483 215.922,98.041 217.161,97.652 217.672 C 97.263 218.182,96.747 219.920,96.505 221.532 C 96.263 223.145,95.811 224.765,95.501 225.132 C 95.158 225.539,94.764 227.619,94.494 230.451 C 94.251 233.009,93.770 235.776,93.426 236.600 C 92.869 237.933,92.800 243.935,92.800 291.249 L 92.800 344.400 122.957 344.400 L 153.113 344.400 153.391 343.300 C 153.544 342.695,153.619 324.470,153.559 302.800 C 153.449 263.387,153.529 260.586,154.783 259.811 C 154.981 259.688,155.268 258.598,155.419 257.388 C 155.570 256.179,156.034 254.756,156.450 254.227 C 156.866 253.698,157.317 252.714,157.452 252.041 C 157.586 251.369,157.955 250.603,158.271 250.341 C 158.588 250.078,159.101 249.253,159.413 248.507 C 160.651 245.545,168.308 237.600,169.926 237.600 C 170.101 237.600,170.852 237.152,171.594 236.605 C 172.335 236.057,173.540 235.497,174.271 235.360 C 175.002 235.223,175.600 234.973,175.600 234.804 C 175.600 234.366,177.499 233.693,179.600 233.386 C 180.590 233.241,181.850 232.825,182.400 232.462 C 183.308 231.861,187.138 231.781,224.200 231.588 C 261.150 231.396,265.135 231.313,266.436 230.709 C 267.226 230.343,269.733 229.852,272.008 229.618 C 274.451 229.368,276.401 228.963,276.772 228.630 C 277.117 228.320,278.570 227.856,280.000 227.600 C 281.430 227.344,282.902 226.862,283.271 226.531 C 283.641 226.199,284.700 225.758,285.627 225.549 C 286.553 225.341,287.744 224.830,288.274 224.413 C 288.804 223.996,289.754 223.542,290.385 223.403 C 291.017 223.265,291.626 222.910,291.739 222.616 C 291.852 222.321,292.632 221.855,293.472 221.579 C 294.312 221.303,295.235 220.745,295.523 220.339 C 295.810 219.932,296.260 219.593,296.523 219.584 C 296.785 219.575,297.623 219.035,298.385 218.384 C 299.147 217.733,299.938 217.200,300.143 217.200 C 300.556 217.200,300.396 217.346,306.700 211.180 C 309.175 208.759,311.200 206.671,311.200 206.542 C 311.200 206.412,311.695 205.706,312.300 204.974 C 312.905 204.241,313.940 202.905,314.600 202.004 C 315.260 201.104,316.084 200.059,316.431 199.683 C 316.777 199.307,317.289 198.428,317.567 197.729 C 317.845 197.030,318.417 196.147,318.837 195.767 C 319.256 195.387,319.600 194.772,319.600 194.400 C 319.600 194.028,319.950 193.407,320.377 193.021 C 320.805 192.634,321.267 191.804,321.405 191.177 C 321.543 190.550,321.983 189.621,322.383 189.112 C 322.783 188.604,323.302 187.494,323.536 186.646 C 323.770 185.799,324.248 184.789,324.598 184.402 C 324.948 184.016,325.347 183.002,325.484 182.150 C 325.621 181.297,326.153 179.808,326.667 178.840 C 327.180 177.873,327.600 176.426,327.600 175.625 C 327.600 174.824,327.967 173.456,328.414 172.585 C 328.917 171.606,329.365 169.623,329.585 167.400 C 329.781 165.420,330.266 162.990,330.662 162.000 C 331.757 159.265,331.773 131.428,330.682 129.007 C 330.287 128.132,329.793 125.627,329.585 123.443 C 329.353 121.007,328.982 119.222,328.626 118.829 C 328.307 118.476,327.847 116.949,327.606 115.435 C 327.364 113.921,326.834 112.261,326.429 111.746 C 326.024 111.231,325.566 109.969,325.412 108.942 C 325.258 107.915,324.882 106.825,324.577 106.520 C 324.271 106.214,323.801 105.207,323.531 104.282 C 323.261 103.357,322.811 102.459,322.532 102.287 C 322.252 102.114,321.829 101.250,321.591 100.366 C 321.353 99.481,320.812 98.412,320.389 97.989 C 319.966 97.566,319.497 96.721,319.346 96.110 C 319.194 95.500,318.740 94.765,318.335 94.477 C 317.931 94.190,317.600 93.720,317.600 93.432 C 317.600 93.145,317.060 92.231,316.400 91.400 C 315.740 90.569,315.200 89.688,315.200 89.441 C 315.200 89.194,314.840 88.768,314.400 88.493 C 313.960 88.218,313.600 87.734,313.600 87.416 C 313.600 87.099,313.359 86.696,313.064 86.520 C 312.769 86.344,311.215 84.670,309.610 82.800 C 307.100 79.874,304.803 77.624,301.840 75.188 C 301.446 74.865,300.671 74.183,300.117 73.673 C 299.563 73.163,298.680 72.582,298.155 72.383 C 297.630 72.183,297.200 71.745,297.200 71.410 C 297.200 71.074,296.854 70.800,296.431 70.800 C 296.008 70.800,295.153 70.375,294.531 69.855 C 293.909 69.335,292.950 68.774,292.400 68.609 C 291.850 68.443,291.040 67.982,290.600 67.584 C 290.160 67.185,289.260 66.732,288.600 66.577 C 287.940 66.422,287.040 65.978,286.600 65.590 C 286.160 65.202,285.016 64.756,284.058 64.600 C 283.099 64.443,281.990 63.990,281.593 63.593 C 281.125 63.125,279.945 62.772,278.230 62.588 C 276.714 62.426,275.207 62.009,274.694 61.610 C 274.056 61.114,272.653 60.833,269.800 60.629 C 267.600 60.473,263.820 60.051,261.400 59.692 C 257.466 59.109,248.307 59.027,174.900 58.916 L 92.800 58.792 92.800 88.188 " stroke="none" fill="#fbfbfb" fill-rule="evenodd"></path><path id="path1" d="M92.196 58.153 C 90.907 59.096,90.740 116.907,92.021 118.536 L 92.858 119.600 168.529 119.608 C 251.201 119.616,251.013 119.612,254.198 121.773 C 255.030 122.338,255.950 122.800,256.242 122.800 C 256.533 122.800,256.958 123.148,257.186 123.573 C 257.413 123.998,257.932 124.451,258.339 124.581 C 258.746 124.710,259.282 125.262,259.531 125.808 C 259.779 126.353,260.221 126.800,260.511 126.800 C 260.802 126.800,261.258 127.404,261.525 128.143 C 261.792 128.881,262.368 129.809,262.805 130.205 C 263.242 130.600,263.600 131.194,263.600 131.523 C 263.600 131.853,264.046 133.066,264.591 134.218 C 266.634 138.536,266.630 151.758,264.584 155.693 C 264.043 156.734,263.600 157.832,263.600 158.134 C 263.600 159.844,256.163 167.483,254.400 167.583 C 254.070 167.602,252.990 168.019,252.000 168.509 L 250.200 169.400 202.800 169.630 C 161.007 169.833,155.150 169.936,153.283 170.499 C 152.119 170.849,149.509 171.351,147.483 171.613 C 145.457 171.875,143.350 172.317,142.800 172.596 C 142.250 172.875,140.860 173.302,139.711 173.545 C 138.562 173.788,136.944 174.350,136.117 174.793 C 135.289 175.237,134.228 175.600,133.760 175.600 C 133.291 175.600,132.479 175.934,131.954 176.342 C 131.429 176.750,130.328 177.303,129.506 177.571 C 128.684 177.839,127.911 178.220,127.789 178.418 C 127.667 178.615,126.809 179.113,125.883 179.524 C 124.958 179.934,123.953 180.569,123.651 180.935 C 123.349 181.301,122.928 181.600,122.714 181.600 C 122.268 181.600,121.132 182.446,117.076 185.800 C 114.606 187.842,112.951 189.481,109.200 193.594 C 107.815 195.112,105.978 197.612,105.541 198.570 C 105.283 199.137,104.922 199.600,104.739 199.600 C 104.556 199.600,104.090 200.206,103.703 200.946 C 103.055 202.187,101.294 205.326,100.106 207.356 C 99.834 207.820,99.609 208.491,99.606 208.846 C 99.603 209.201,99.257 209.928,98.839 210.460 C 98.420 210.993,97.865 212.232,97.606 213.214 C 97.347 214.196,96.900 215.367,96.613 215.816 C 96.326 216.265,95.879 217.656,95.619 218.908 C 95.359 220.160,94.887 221.704,94.570 222.340 C 94.253 222.975,93.818 224.882,93.603 226.576 C 93.388 228.270,92.935 230.475,92.595 231.475 C 91.283 235.338,90.375 341.377,91.625 344.666 C 92.296 346.430,91.512 346.387,123.100 346.394 L 153.200 346.400 154.045 345.555 L 154.890 344.710 154.770 305.055 C 154.663 269.741,154.718 265.247,155.277 264.000 C 155.622 263.230,156.112 261.379,156.366 259.887 C 156.620 258.394,157.181 256.594,157.613 255.887 C 158.044 255.179,158.398 254.230,158.399 253.778 C 158.399 253.325,158.850 252.345,159.400 251.600 C 159.950 250.855,160.400 250.012,160.400 249.727 C 160.400 248.417,165.720 242.354,168.500 240.496 C 169.325 239.945,170.000 239.352,170.000 239.178 C 170.000 239.004,170.616 238.659,171.368 238.411 C 172.120 238.162,172.943 237.710,173.196 237.405 C 173.448 237.101,174.228 236.730,174.928 236.582 C 175.627 236.434,176.830 235.976,177.600 235.564 C 178.370 235.152,180.736 234.544,182.858 234.214 C 184.980 233.883,187.197 233.429,187.784 233.206 C 188.475 232.943,200.821 232.793,222.726 232.781 C 258.733 232.761,268.756 232.490,271.400 231.466 C 272.280 231.125,274.344 230.648,275.988 230.406 C 277.631 230.164,279.251 229.733,279.588 229.448 C 279.924 229.163,281.221 228.711,282.469 228.443 C 283.717 228.175,284.950 227.701,285.209 227.389 C 285.468 227.077,286.294 226.706,287.044 226.565 C 287.793 226.425,288.810 225.996,289.303 225.613 C 289.797 225.230,290.874 224.697,291.697 224.428 C 292.520 224.160,293.330 223.728,293.497 223.470 C 293.664 223.211,294.475 222.688,295.300 222.306 C 296.125 221.925,296.800 221.430,296.800 221.206 C 296.800 220.983,297.045 220.800,297.345 220.800 C 297.852 220.800,299.359 219.774,302.152 217.527 C 303.250 216.644,311.633 208.280,313.102 206.603 C 314.678 204.803,316.800 201.791,316.800 201.354 C 316.800 201.096,317.064 200.784,317.387 200.660 C 317.710 200.536,318.223 199.842,318.525 199.117 C 318.828 198.393,319.374 197.553,319.738 197.251 C 320.102 196.949,320.403 196.499,320.407 196.251 C 320.411 196.003,320.951 195.008,321.607 194.040 C 322.263 193.072,322.800 191.969,322.800 191.589 C 322.800 191.209,323.061 190.682,323.380 190.417 C 323.698 190.152,324.171 189.275,324.430 188.468 C 324.689 187.661,325.138 186.727,325.428 186.394 C 325.718 186.060,326.155 184.893,326.400 183.800 C 326.645 182.707,327.106 181.525,327.424 181.174 C 327.742 180.822,328.196 179.469,328.432 178.167 C 328.668 176.865,329.118 175.401,329.431 174.914 C 329.744 174.426,330.260 172.446,330.577 170.514 C 330.895 168.581,331.423 166.010,331.751 164.800 C 333.274 159.183,333.268 131.563,331.743 126.000 C 331.411 124.790,330.892 122.296,330.588 120.458 C 330.285 118.619,329.781 116.726,329.469 116.249 C 329.157 115.772,328.777 114.576,328.626 113.591 C 328.302 111.482,327.629 109.600,327.197 109.600 C 327.029 109.600,326.771 108.803,326.625 107.828 C 326.479 106.854,326.026 105.632,325.618 105.114 C 325.211 104.596,324.678 103.434,324.436 102.533 C 324.193 101.631,323.737 100.680,323.423 100.419 C 323.109 100.158,322.738 99.430,322.600 98.800 C 322.462 98.170,322.088 97.439,321.770 97.175 C 321.451 96.911,320.843 95.908,320.418 94.947 C 319.993 93.986,319.474 93.200,319.266 93.200 C 319.057 93.200,318.776 92.758,318.640 92.217 C 318.504 91.676,317.990 90.781,317.497 90.226 C 317.003 89.672,316.150 88.566,315.600 87.769 C 312.086 82.672,301.308 71.600,299.861 71.600 C 299.723 71.600,298.572 70.811,297.304 69.847 C 296.036 68.883,294.369 67.799,293.599 67.438 C 292.830 67.078,290.940 66.078,289.400 65.217 C 287.860 64.355,286.277 63.639,285.882 63.625 C 285.487 63.611,284.318 63.150,283.285 62.600 C 282.252 62.050,280.955 61.596,280.403 61.591 C 279.851 61.586,278.625 61.231,277.678 60.801 C 276.731 60.371,274.571 59.845,272.878 59.632 C 271.185 59.419,268.720 58.924,267.400 58.533 C 264.039 57.535,93.547 57.166,92.196 58.153 M262.600 58.778 C 267.643 59.369,272.161 60.091,274.400 60.664 C 280.573 62.242,282.520 62.839,283.311 63.393 C 283.788 63.727,284.433 64.000,284.744 64.000 C 285.258 64.000,289.839 66.173,293.598 68.200 C 300.964 72.172,311.536 82.360,316.842 90.600 C 317.408 91.480,318.216 92.724,318.636 93.364 C 321.085 97.093,325.995 106.899,326.004 108.075 C 326.006 108.364,326.450 109.500,326.991 110.600 C 327.532 111.700,327.981 113.003,327.987 113.496 C 327.994 113.988,328.361 115.338,328.803 116.496 C 329.244 117.653,329.871 120.246,330.197 122.258 C 330.522 124.270,330.972 126.399,331.196 126.990 C 332.242 129.741,332.725 147.387,332.021 157.083 C 331.614 162.672,330.336 169.225,328.252 176.400 C 322.764 195.299,308.530 214.375,293.940 222.385 C 286.215 226.626,279.583 229.109,272.478 230.419 C 270.211 230.838,268.141 231.319,267.878 231.490 C 267.615 231.660,249.400 231.906,227.400 232.035 C 188.071 232.265,187.344 232.284,184.075 233.135 C 182.246 233.611,180.406 234.000,179.987 234.000 C 179.567 234.000,178.273 234.429,177.112 234.953 C 175.950 235.477,174.576 236.035,174.059 236.193 C 173.169 236.464,171.964 237.182,168.857 239.289 C 161.629 244.191,157.092 252.394,154.195 265.797 C 154.052 266.456,153.956 284.431,153.980 305.742 C 154.013 334.470,153.905 344.632,153.563 345.044 C 152.717 346.064,92.962 345.851,92.414 344.826 C 91.259 342.668,92.012 234.620,93.197 232.406 C 93.382 232.061,93.727 230.343,93.966 228.589 C 94.373 225.585,95.255 222.121,96.660 218.000 C 98.074 213.855,98.796 211.922,99.315 210.892 C 99.617 210.291,100.390 208.731,101.033 207.425 C 105.751 197.824,113.749 188.331,121.377 183.277 C 122.930 182.248,124.290 181.289,124.400 181.146 C 124.752 180.688,134.135 176.000,134.700 176.000 C 134.999 176.000,136.021 175.646,136.971 175.213 C 137.922 174.780,139.575 174.230,140.645 173.990 C 141.715 173.750,143.403 173.295,144.395 172.978 C 145.388 172.661,148.148 172.133,150.529 171.806 C 152.910 171.479,155.070 171.074,155.329 170.906 C 155.588 170.738,176.950 170.508,202.800 170.395 L 249.800 170.190 252.600 168.992 C 256.120 167.487,258.574 165.794,260.609 163.470 C 262.735 161.042,264.000 159.348,264.000 158.931 C 264.000 158.742,264.390 157.871,264.867 156.994 C 265.810 155.261,267.191 148.179,267.196 145.050 C 267.215 134.922,262.386 125.513,255.106 121.491 C 249.963 118.650,254.751 118.800,169.406 118.800 C 94.105 118.800,92.821 118.787,92.414 118.026 C 91.762 116.809,91.846 58.929,92.500 58.665 C 93.355 58.320,259.637 58.430,262.600 58.778 " stroke="none" fill="#6acaed" fill-rule="evenodd"></path><path id="path2" d="M0.000 200.000 L 0.000 400.000 200.000 400.000 L 400.000 400.000 400.000 200.000 L 400.000 0.000 200.000 0.000 L 0.000 0.000 0.000 200.000 M270.523 58.300 C 271.576 58.923,272.687 59.200,274.126 59.200 C 276.502 59.200,278.808 59.767,279.234 60.454 C 279.393 60.712,280.576 61.066,281.862 61.240 C 283.545 61.467,284.354 61.786,284.749 62.378 C 285.114 62.925,285.731 63.200,286.593 63.200 C 287.315 63.200,288.540 63.643,289.362 64.200 C 290.172 64.750,291.106 65.200,291.437 65.200 C 291.768 65.200,292.435 65.626,292.919 66.148 C 293.404 66.669,294.407 67.228,295.149 67.390 C 295.976 67.571,296.574 67.977,296.695 68.442 C 296.804 68.859,297.201 69.200,297.577 69.200 C 297.953 69.200,298.683 69.650,299.200 70.200 C 299.717 70.750,300.372 71.200,300.656 71.200 C 300.940 71.200,301.725 71.740,302.400 72.400 C 303.075 73.060,303.789 73.600,303.987 73.600 C 304.184 73.600,304.452 73.933,304.581 74.339 C 304.710 74.746,305.262 75.282,305.808 75.531 C 306.353 75.779,306.800 76.236,306.800 76.545 C 306.800 76.854,307.173 77.204,307.630 77.324 C 308.086 77.443,308.553 77.897,308.667 78.333 C 308.781 78.769,309.231 79.219,309.667 79.333 C 310.103 79.447,310.555 79.908,310.673 80.357 C 310.790 80.806,311.227 81.281,311.642 81.413 C 312.058 81.545,312.508 82.091,312.642 82.627 C 312.777 83.162,313.141 83.600,313.452 83.600 C 313.763 83.600,314.237 84.095,314.507 84.700 C 314.776 85.305,315.402 86.128,315.898 86.529 C 316.394 86.930,316.800 87.652,316.800 88.134 C 316.800 88.658,317.161 89.169,317.698 89.405 C 318.191 89.622,318.663 90.160,318.746 90.599 C 318.829 91.038,319.325 91.795,319.848 92.280 C 320.372 92.765,320.800 93.600,320.800 94.135 C 320.800 94.731,321.187 95.362,321.800 95.763 C 322.549 96.254,322.800 96.767,322.800 97.809 C 322.800 98.764,322.984 99.200,323.386 99.200 C 324.161 99.200,324.800 100.453,324.800 101.974 C 324.800 102.648,324.967 103.200,325.171 103.200 C 326.020 103.200,326.800 104.546,326.800 106.010 C 326.800 107.134,327.077 107.840,327.800 108.564 C 328.585 109.348,328.800 109.971,328.800 111.456 C 328.800 112.864,329.029 113.592,329.694 114.300 C 330.421 115.074,330.615 115.823,330.738 118.325 C 330.838 120.351,331.074 121.506,331.429 121.711 C 332.348 122.241,332.795 124.811,332.798 129.574 C 332.800 133.380,332.939 134.435,333.629 135.860 C 334.745 138.164,334.673 153.517,333.539 155.245 C 333.020 156.036,332.848 157.508,332.739 162.095 C 332.610 167.501,332.533 168.008,331.700 168.894 C 330.969 169.672,330.800 170.311,330.800 172.300 C 330.800 175.126,330.283 176.800,329.410 176.800 C 328.950 176.800,328.799 177.266,328.795 178.700 C 328.787 181.279,328.455 182.329,327.557 182.614 C 326.969 182.800,326.800 183.238,326.800 184.569 C 326.800 185.843,326.543 186.560,325.800 187.362 C 325.221 187.987,324.800 188.920,324.800 189.579 C 324.800 190.270,324.411 191.085,323.807 191.658 C 323.261 192.176,322.811 192.974,322.807 193.430 C 322.803 193.887,322.360 194.674,321.822 195.180 C 321.284 195.685,320.789 196.571,320.722 197.149 C 320.649 197.780,320.240 198.358,319.700 198.595 C 319.173 198.826,318.800 199.342,318.800 199.840 C 318.800 200.308,318.374 201.120,317.854 201.645 C 317.334 202.170,316.784 202.996,316.634 203.480 C 316.483 203.963,316.020 204.467,315.605 204.598 C 315.190 204.730,314.794 205.234,314.725 205.719 C 314.646 206.279,314.272 206.647,313.700 206.728 C 313.063 206.818,312.800 207.126,312.800 207.781 C 312.800 208.368,312.509 208.783,312.005 208.915 C 311.567 209.029,311.049 209.546,310.852 210.064 C 310.449 211.123,304.541 216.800,303.842 216.800 C 303.593 216.800,303.212 217.205,302.995 217.700 C 302.778 218.195,302.195 218.658,301.700 218.728 C 301.205 218.798,300.800 219.117,300.800 219.436 C 300.800 219.756,300.305 220.232,299.700 220.494 C 299.095 220.756,298.170 221.383,297.645 221.886 C 297.120 222.389,296.265 222.800,295.745 222.800 C 295.225 222.800,294.800 222.967,294.800 223.171 C 294.800 223.957,293.488 224.800,292.266 224.800 C 291.326 224.800,290.886 225.037,290.595 225.700 C 290.304 226.363,289.803 226.633,288.694 226.725 C 287.753 226.802,286.821 227.215,286.212 227.825 C 285.534 228.502,284.791 228.800,283.776 228.800 C 282.802 228.800,281.920 229.133,281.127 229.800 C 280.126 230.643,279.529 230.800,277.333 230.800 C 275.114 230.800,274.620 230.933,274.000 231.700 C 273.030 232.899,267.047 233.124,224.200 233.573 C 205.606 233.767,190.777 234.087,189.400 234.322 C 188.080 234.548,185.496 234.748,183.658 234.766 C 180.703 234.796,180.178 234.916,179.127 235.800 C 178.347 236.457,177.450 236.800,176.515 236.800 C 175.511 236.800,174.819 237.094,174.165 237.800 C 173.583 238.428,172.803 238.800,172.066 238.800 C 171.232 238.800,170.833 239.030,170.685 239.595 C 170.571 240.033,170.010 240.568,169.439 240.785 C 168.867 241.002,168.400 241.369,168.400 241.599 C 168.400 241.829,167.950 242.222,167.400 242.473 C 166.850 242.723,166.400 243.186,166.400 243.502 C 166.400 243.817,166.062 244.163,165.649 244.271 C 165.236 244.379,164.699 244.903,164.457 245.434 C 164.215 245.965,163.824 246.400,163.588 246.400 C 163.352 246.400,162.970 246.940,162.740 247.600 C 162.473 248.366,162.047 248.800,161.561 248.800 C 160.978 248.800,160.800 249.088,160.800 250.026 C 160.800 251.547,160.161 252.800,159.386 252.800 C 158.967 252.800,158.800 253.265,158.800 254.426 C 158.800 256.077,158.272 257.475,157.374 258.200 C 157.075 258.441,156.812 259.987,156.711 262.098 C 156.572 265.000,156.395 265.753,155.672 266.524 C 154.535 267.733,154.296 283.484,155.400 284.400 C 156.431 285.256,156.290 343.271,155.253 345.206 L 154.505 346.600 123.000 346.600 L 91.495 346.600 90.747 345.206 C 89.876 343.582,89.590 252.158,90.444 248.400 C 90.669 247.410,90.988 242.865,91.152 238.299 C 91.420 230.863,91.535 229.884,92.262 228.899 C 92.862 228.087,93.133 226.929,93.301 224.463 C 93.475 221.924,93.717 220.921,94.317 220.263 C 94.813 219.719,95.175 218.619,95.295 217.287 C 95.416 215.940,95.777 214.852,96.290 214.287 C 96.732 213.799,97.203 212.680,97.335 211.800 C 97.469 210.909,97.935 209.906,98.388 209.536 C 98.835 209.171,99.202 208.541,99.205 208.136 C 99.216 206.693,99.698 205.623,100.443 205.386 C 100.917 205.236,101.200 204.776,101.200 204.155 C 101.200 203.610,101.650 202.714,102.200 202.164 C 102.750 201.614,103.200 200.916,103.200 200.613 C 103.200 200.309,103.645 199.533,104.189 198.886 C 104.733 198.240,105.358 197.236,105.579 196.656 C 105.800 196.075,106.235 195.600,106.547 195.600 C 106.858 195.600,107.223 195.162,107.358 194.627 C 107.492 194.091,107.942 193.545,108.358 193.413 C 108.773 193.281,109.210 192.806,109.327 192.357 C 109.445 191.908,109.914 191.443,110.370 191.324 C 110.844 191.200,111.200 190.779,111.200 190.343 C 111.200 189.909,111.607 189.425,112.145 189.221 C 112.665 189.023,113.188 188.488,113.308 188.031 C 113.435 187.543,113.852 187.200,114.316 187.200 C 114.780 187.200,115.196 186.857,115.324 186.370 C 115.443 185.914,115.908 185.445,116.357 185.327 C 116.806 185.210,117.279 184.782,117.407 184.377 C 117.536 183.972,117.997 183.528,118.433 183.389 C 118.869 183.251,119.662 182.702,120.195 182.169 C 120.728 181.636,121.525 181.200,121.968 181.200 C 122.410 181.200,122.954 180.859,123.177 180.442 C 123.401 180.025,124.127 179.495,124.792 179.263 C 125.456 179.031,126.000 178.681,126.000 178.485 C 126.000 178.029,127.805 177.200,128.799 177.200 C 129.218 177.200,129.704 176.956,129.880 176.658 C 130.350 175.864,131.791 175.200,133.048 175.200 C 133.653 175.200,134.554 174.819,135.049 174.354 C 135.599 173.837,136.700 173.423,137.875 173.291 C 138.934 173.172,140.289 172.713,140.887 172.272 C 141.702 171.670,142.801 171.424,145.287 171.288 C 147.374 171.173,148.844 170.892,149.259 170.528 C 150.606 169.347,155.815 169.216,201.900 169.208 C 247.944 169.200,248.814 169.186,249.584 168.416 C 250.038 167.962,251.203 167.521,252.353 167.368 C 253.725 167.186,254.594 166.811,255.166 166.153 C 255.622 165.629,256.188 165.200,256.423 165.200 C 256.971 165.200,261.200 160.988,261.200 160.442 C 261.200 160.217,261.627 159.620,262.150 159.116 C 262.683 158.602,263.202 157.517,263.334 156.643 C 263.463 155.786,263.935 154.694,264.384 154.217 C 265.673 152.844,265.638 137.118,264.343 135.739 C 263.786 135.146,263.417 134.119,263.292 132.813 C 263.161 131.451,262.918 130.800,262.541 130.800 C 262.234 130.800,261.769 130.331,261.508 129.758 C 260.875 128.368,257.215 124.400,256.567 124.400 C 256.285 124.400,255.940 124.040,255.800 123.600 C 255.658 123.152,255.195 122.800,254.747 122.800 C 253.755 122.800,252.306 122.063,251.880 121.342 C 251.613 120.889,238.492 120.799,172.080 120.794 C 128.366 120.791,92.369 120.641,92.086 120.462 C 89.976 119.123,90.000 119.485,90.000 88.490 C 90.000 57.950,89.952 58.785,91.777 57.503 C 92.010 57.339,131.980 57.249,180.600 57.303 L 269.000 57.400 270.523 58.300 " stroke="none" fill="#04a4e4" fill-rule="evenodd"></path><path id="path3" d="M91.777 57.503 C 89.952 58.785,90.000 57.950,90.000 88.490 C 90.000 119.485,89.976 119.123,92.086 120.462 C 92.369 120.641,128.366 120.791,172.080 120.794 C 238.492 120.799,251.613 120.889,251.880 121.342 C 252.306 122.063,253.755 122.800,254.747 122.800 C 255.195 122.800,255.658 123.152,255.800 123.600 C 255.940 124.040,256.285 124.400,256.567 124.400 C 257.215 124.400,260.875 128.368,261.508 129.758 C 261.769 130.331,262.234 130.800,262.541 130.800 C 262.918 130.800,263.161 131.451,263.292 132.813 C 263.417 134.119,263.786 135.146,264.343 135.739 C 265.638 137.118,265.673 152.844,264.384 154.217 C 263.935 154.694,263.463 155.786,263.334 156.643 C 263.202 157.517,262.683 158.602,262.150 159.116 C 261.627 159.620,261.200 160.217,261.200 160.442 C 261.200 160.988,256.971 165.200,256.423 165.200 C 256.188 165.200,255.622 165.629,255.166 166.153 C 254.594 166.811,253.725 167.186,252.353 167.368 C 251.203 167.521,250.038 167.962,249.584 168.416 C 248.814 169.186,247.944 169.200,201.900 169.208 C 155.815 169.216,150.606 169.347,149.259 170.528 C 148.844 170.892,147.374 171.173,145.287 171.288 C 142.801 171.424,141.702 171.670,140.887 172.272 C 140.289 172.713,138.934 173.172,137.875 173.291 C 136.700 173.423,135.599 173.837,135.049 174.354 C 134.554 174.819,133.653 175.200,133.048 175.200 C 131.791 175.200,130.350 175.864,129.880 176.658 C 129.704 176.956,129.218 177.200,128.799 177.200 C 127.805 177.200,126.000 178.029,126.000 178.485 C 126.000 178.681,125.456 179.031,124.792 179.263 C 124.127 179.495,123.401 180.025,123.177 180.442 C 122.954 180.859,122.410 181.200,121.968 181.200 C 121.525 181.200,120.728 181.636,120.195 182.169 C 119.662 182.702,118.869 183.251,118.433 183.389 C 117.997 183.528,117.536 183.972,117.407 184.377 C 117.279 184.782,116.806 185.210,116.357 185.327 C 115.908 185.445,115.443 185.914,115.324 186.370 C 115.196 186.857,114.780 187.200,114.316 187.200 C 113.852 187.200,113.435 187.543,113.308 188.031 C 113.188 188.488,112.665 189.023,112.145 189.221 C 111.607 189.425,111.200 189.909,111.200 190.343 C 111.200 190.779,110.844 191.200,110.370 191.324 C 109.914 191.443,109.445 191.908,109.327 192.357 C 109.210 192.806,108.773 193.281,108.358 193.413 C 107.942 193.545,107.492 194.091,107.358 194.627 C 107.223 195.162,106.858 195.600,106.547 195.600 C 106.235 195.600,105.800 196.075,105.579 196.656 C 105.358 197.236,104.733 198.240,104.189 198.886 C 103.645 199.533,103.200 200.309,103.200 200.613 C 103.200 200.916,102.750 201.614,102.200 202.164 C 101.650 202.714,101.200 203.610,101.200 204.155 C 101.200 204.776,100.917 205.236,100.443 205.386 C 99.698 205.623,99.216 206.693,99.205 208.136 C 99.202 208.541,98.835 209.171,98.388 209.536 C 97.935 209.906,97.469 210.909,97.335 211.800 C 97.203 212.680,96.732 213.799,96.290 214.287 C 95.777 214.852,95.416 215.940,95.295 217.287 C 95.175 218.619,94.813 219.719,94.317 220.263 C 93.717 220.921,93.475 221.924,93.301 224.463 C 93.133 226.929,92.862 228.087,92.262 228.899 C 91.535 229.884,91.420 230.863,91.152 238.299 C 90.988 242.865,90.669 247.410,90.444 248.400 C 89.590 252.158,89.876 343.582,90.747 345.206 L 91.495 346.600 123.000 346.600 L 154.505 346.600 155.253 345.206 C 156.290 343.271,156.431 285.256,155.400 284.400 C 154.868 283.958,154.800 287.331,154.800 314.351 C 154.800 344.267,154.786 344.814,154.000 345.600 C 153.168 346.432,93.808 346.901,92.525 346.086 C 91.252 345.276,91.200 343.364,91.207 297.274 C 91.214 249.043,91.518 234.649,92.595 231.475 C 92.935 230.475,93.388 228.270,93.603 226.576 C 93.818 224.882,94.253 222.975,94.570 222.340 C 94.887 221.704,95.359 220.160,95.619 218.908 C 95.879 217.656,96.326 216.265,96.613 215.816 C 96.900 215.367,97.347 214.196,97.606 213.214 C 97.865 212.232,98.420 210.993,98.839 210.460 C 99.257 209.928,99.603 209.201,99.606 208.846 C 99.609 208.491,99.834 207.820,100.106 207.356 C 101.294 205.326,103.055 202.187,103.703 200.946 C 104.090 200.206,104.556 199.600,104.739 199.600 C 104.922 199.600,105.283 199.137,105.541 198.570 C 105.978 197.612,107.815 195.112,109.200 193.594 C 112.951 189.481,114.606 187.842,117.076 185.800 C 121.132 182.446,122.268 181.600,122.714 181.600 C 122.928 181.600,123.349 181.301,123.651 180.935 C 123.953 180.569,124.958 179.934,125.883 179.524 C 126.809 179.113,127.667 178.615,127.789 178.418 C 127.911 178.220,128.684 177.839,129.506 177.571 C 130.328 177.303,131.429 176.750,131.954 176.342 C 132.479 175.934,133.291 175.600,133.760 175.600 C 134.228 175.600,135.289 175.237,136.117 174.793 C 136.944 174.350,138.562 173.788,139.711 173.545 C 140.860 173.302,142.250 172.875,142.800 172.596 C 143.350 172.317,145.457 171.875,147.483 171.613 C 149.509 171.351,152.119 170.849,153.283 170.499 C 155.150 169.936,161.007 169.833,202.800 169.630 L 250.200 169.400 252.000 168.509 C 252.990 168.019,254.070 167.602,254.400 167.583 C 256.163 167.483,263.600 159.844,263.600 158.134 C 263.600 157.832,264.043 156.734,264.584 155.693 C 266.630 151.758,266.634 138.536,264.591 134.218 C 264.046 133.066,263.600 131.853,263.600 131.523 C 263.600 131.194,263.242 130.600,262.805 130.205 C 262.368 129.809,261.792 128.881,261.525 128.143 C 261.258 127.404,260.802 126.800,260.511 126.800 C 260.221 126.800,259.779 126.353,259.531 125.808 C 259.282 125.262,258.746 124.710,258.339 124.581 C 257.932 124.451,257.413 123.998,257.186 123.573 C 256.958 123.148,256.533 122.800,256.242 122.800 C 255.950 122.800,255.030 122.338,254.198 121.773 C 251.013 119.612,251.201 119.616,168.529 119.608 L 92.858 119.600 92.021 118.536 C 90.740 116.907,90.907 59.096,92.196 58.153 C 93.547 57.166,264.039 57.535,267.400 58.533 C 268.720 58.924,271.185 59.419,272.878 59.632 C 274.571 59.845,276.731 60.371,277.678 60.801 C 278.625 61.231,279.851 61.586,280.403 61.591 C 280.955 61.596,282.252 62.050,283.285 62.600 C 284.318 63.150,285.487 63.611,285.882 63.625 C 286.277 63.639,287.860 64.355,289.400 65.217 C 290.940 66.078,292.830 67.078,293.599 67.438 C 294.369 67.799,296.036 68.883,297.304 69.847 C 298.572 70.811,299.723 71.600,299.861 71.600 C 301.308 71.600,312.086 82.672,315.600 87.769 C 316.150 88.566,317.003 89.672,317.497 90.226 C 317.990 90.781,318.504 91.676,318.640 92.217 C 318.776 92.758,319.057 93.200,319.266 93.200 C 319.474 93.200,320.000 94.003,320.434 94.983 C 320.868 95.964,321.410 96.883,321.639 97.024 C 321.869 97.166,322.212 97.668,322.403 98.141 C 322.707 98.894,322.752 98.841,322.775 97.709 C 322.793 96.757,322.538 96.247,321.800 95.763 C 321.187 95.362,320.800 94.731,320.800 94.135 C 320.800 93.600,320.372 92.765,319.848 92.280 C 319.325 91.795,318.829 91.038,318.746 90.599 C 318.663 90.160,318.191 89.622,317.698 89.405 C 317.161 89.169,316.800 88.658,316.800 88.134 C 316.800 87.652,316.394 86.930,315.898 86.529 C 315.402 86.128,314.776 85.305,314.507 84.700 C 314.237 84.095,313.763 83.600,313.452 83.600 C 313.141 83.600,312.777 83.162,312.642 82.627 C 312.508 82.091,312.058 81.545,311.642 81.413 C 311.227 81.281,310.790 80.806,310.673 80.357 C 310.555 79.908,310.103 79.447,309.667 79.333 C 309.231 79.219,308.781 78.769,308.667 78.333 C 308.553 77.897,308.086 77.443,307.630 77.324 C 307.173 77.204,306.800 76.854,306.800 76.545 C 306.800 76.236,306.353 75.779,305.808 75.531 C 305.262 75.282,304.710 74.746,304.581 74.339 C 304.452 73.933,304.184 73.600,303.987 73.600 C 303.789 73.600,303.075 73.060,302.400 72.400 C 301.725 71.740,300.940 71.200,300.656 71.200 C 300.372 71.200,299.717 70.750,299.200 70.200 C 298.683 69.650,297.953 69.200,297.577 69.200 C 297.201 69.200,296.804 68.859,296.695 68.442 C 296.574 67.977,295.976 67.571,295.149 67.390 C 294.407 67.228,293.404 66.669,292.919 66.148 C 292.435 65.626,291.768 65.200,291.437 65.200 C 291.106 65.200,290.172 64.750,289.362 64.200 C 288.540 63.643,287.315 63.200,286.593 63.200 C 285.731 63.200,285.114 62.925,284.749 62.378 C 284.354 61.786,283.545 61.467,281.862 61.240 C 280.576 61.066,279.393 60.712,279.234 60.454 C 278.808 59.767,276.502 59.200,274.126 59.200 C 272.687 59.200,271.576 58.923,270.523 58.300 L 269.000 57.400 180.600 57.303 C 131.980 57.249,92.010 57.339,91.777 57.503 M322.800 99.551 C 322.800 99.744,323.069 100.125,323.397 100.398 C 323.726 100.670,324.192 101.637,324.434 102.547 C 324.676 103.456,325.138 104.496,325.460 104.857 C 325.783 105.218,326.200 106.028,326.389 106.657 C 326.710 107.730,326.733 107.698,326.766 106.129 C 326.798 104.539,326.069 103.200,325.171 103.200 C 324.967 103.200,324.800 102.648,324.800 101.974 C 324.800 100.453,324.161 99.200,323.386 99.200 C 323.064 99.200,322.800 99.358,322.800 99.551 M326.800 108.800 C 326.800 109.240,326.958 109.600,327.151 109.600 C 327.624 109.600,328.290 111.402,328.626 113.591 C 328.777 114.576,329.168 115.790,329.494 116.287 C 329.820 116.784,330.235 118.138,330.418 119.296 C 330.732 121.294,330.745 121.245,330.668 118.325 C 330.600 115.761,330.439 115.093,329.694 114.300 C 329.044 113.609,328.800 112.860,328.800 111.563 C 328.800 109.844,327.960 108.000,327.177 108.000 C 326.970 108.000,326.800 108.360,326.800 108.800 M330.800 122.318 C 330.800 122.749,331.094 123.799,331.452 124.651 C 331.811 125.503,332.234 128.000,332.393 130.200 L 332.681 134.200 332.718 129.400 C 332.755 124.599,332.279 122.017,331.300 121.697 C 331.014 121.603,330.800 121.870,330.800 122.318 M332.900 145.393 C 332.900 151.219,333.051 155.892,333.235 155.778 C 334.972 154.705,334.816 134.800,333.070 134.800 C 332.977 134.800,332.900 139.567,332.900 145.393 M332.484 159.613 C 332.438 161.270,332.116 163.610,331.769 164.813 C 330.605 168.845,330.544 169.938,331.531 169.054 C 332.592 168.104,332.881 166.079,332.707 160.800 C 332.590 157.248,332.556 157.065,332.484 159.613 M330.318 171.907 C 330.163 173.065,329.758 174.410,329.418 174.896 C 328.632 176.018,328.628 176.800,329.410 176.800 C 330.322 176.800,330.849 174.957,330.717 172.229 L 330.600 169.800 330.318 171.907 M328.331 178.731 C 328.186 179.683,327.793 180.766,327.457 181.138 C 327.120 181.509,326.645 182.707,326.400 183.800 C 326.155 184.893,325.718 186.060,325.428 186.394 C 325.138 186.727,324.689 187.661,324.430 188.468 C 324.171 189.275,323.698 190.152,323.380 190.417 C 323.061 190.682,322.800 191.209,322.800 191.589 C 322.800 191.969,322.263 193.072,321.607 194.040 C 320.951 195.008,320.411 196.003,320.407 196.251 C 320.403 196.499,320.102 196.949,319.738 197.251 C 319.374 197.553,318.828 198.393,318.525 199.117 C 318.223 199.842,317.710 200.536,317.387 200.660 C 317.064 200.784,316.800 201.096,316.800 201.354 C 316.800 202.673,306.553 213.987,302.152 217.527 C 299.410 219.733,297.856 220.800,297.388 220.800 C 297.112 220.800,296.788 221.054,296.669 221.365 C 296.550 221.675,295.810 222.161,295.026 222.445 C 294.242 222.729,293.600 223.113,293.600 223.300 C 293.600 223.486,293.015 223.893,292.300 224.204 L 291.000 224.769 292.271 224.784 C 293.486 224.799,294.800 223.961,294.800 223.171 C 294.800 222.967,295.225 222.800,295.745 222.800 C 296.265 222.800,297.120 222.389,297.645 221.886 C 298.170 221.383,299.095 220.756,299.700 220.494 C 300.305 220.232,300.800 219.756,300.800 219.436 C 300.800 219.117,301.205 218.798,301.700 218.728 C 302.195 218.658,302.778 218.195,302.995 217.700 C 303.212 217.205,303.593 216.800,303.842 216.800 C 304.541 216.800,310.449 211.123,310.852 210.064 C 311.049 209.546,311.567 209.029,312.005 208.915 C 312.509 208.783,312.800 208.368,312.800 207.781 C 312.800 207.126,313.063 206.818,313.700 206.728 C 314.272 206.647,314.646 206.279,314.725 205.719 C 314.794 205.234,315.190 204.730,315.605 204.598 C 316.020 204.467,316.483 203.963,316.634 203.480 C 316.784 202.996,317.334 202.170,317.854 201.645 C 318.374 201.120,318.800 200.308,318.800 199.840 C 318.800 199.342,319.173 198.826,319.700 198.595 C 320.240 198.358,320.649 197.780,320.722 197.149 C 320.789 196.571,321.284 195.685,321.822 195.180 C 322.360 194.674,322.803 193.887,322.807 193.430 C 322.811 192.974,323.261 192.176,323.807 191.658 C 324.411 191.085,324.800 190.270,324.800 189.579 C 324.800 188.920,325.221 187.987,325.800 187.362 C 326.543 186.560,326.800 185.843,326.800 184.569 C 326.800 183.215,326.966 182.801,327.586 182.604 C 328.464 182.326,328.941 180.560,328.728 178.373 C 328.596 177.009,328.593 177.011,328.331 178.731 M289.593 225.408 C 289.315 225.743,288.309 226.213,287.356 226.453 C 286.404 226.693,285.425 227.129,285.181 227.423 C 284.938 227.716,283.717 228.175,282.469 228.443 C 281.221 228.711,279.920 229.167,279.577 229.457 C 279.235 229.747,277.975 230.147,276.777 230.345 L 274.600 230.706 277.269 230.753 C 279.572 230.794,280.102 230.663,281.127 229.800 C 281.920 229.133,282.802 228.800,283.776 228.800 C 284.800 228.800,285.535 228.501,286.236 227.800 C 286.893 227.143,287.683 226.800,288.538 226.800 C 289.896 226.800,290.800 226.208,290.800 225.320 C 290.800 224.620,290.212 224.663,289.593 225.408 M271.200 231.489 C 270.295 231.892,267.822 232.217,264.200 232.409 L 258.600 232.706 265.840 232.653 C 271.326 232.613,273.239 232.467,273.740 232.051 C 275.309 230.746,273.678 230.385,271.200 231.489 M187.614 233.244 C 187.072 233.461,185.182 233.881,183.414 234.178 L 180.200 234.719 183.200 234.756 C 184.850 234.776,188.450 234.526,191.200 234.200 C 195.191 233.727,202.252 233.605,226.200 233.597 C 244.872 233.591,256.427 233.441,256.800 233.200 C 257.627 232.665,188.955 232.709,187.614 233.244 M177.812 235.421 C 177.379 235.748,176.299 236.209,175.412 236.445 C 174.526 236.681,173.518 237.125,173.174 237.432 C 172.830 237.739,171.975 238.190,171.274 238.434 C 170.573 238.678,170.000 239.017,170.000 239.186 C 170.000 239.355,169.325 239.945,168.500 240.496 C 165.720 242.354,160.400 248.417,160.400 249.727 C 160.400 250.012,159.950 250.855,159.400 251.600 C 158.850 252.345,158.399 253.325,158.399 253.778 C 158.398 254.230,158.044 255.179,157.613 255.887 C 157.181 256.594,156.620 258.394,156.366 259.887 C 156.112 261.379,155.655 263.207,155.352 263.949 C 155.048 264.691,154.800 265.766,154.800 266.338 L 154.800 267.378 155.671 266.507 C 156.400 265.778,156.569 265.063,156.710 262.118 C 156.812 259.992,157.074 258.442,157.374 258.200 C 158.272 257.475,158.800 256.077,158.800 254.426 C 158.800 253.265,158.967 252.800,159.386 252.800 C 160.161 252.800,160.800 251.547,160.800 250.026 C 160.800 249.088,160.978 248.800,161.561 248.800 C 162.047 248.800,162.473 248.366,162.740 247.600 C 162.970 246.940,163.352 246.400,163.588 246.400 C 163.824 246.400,164.222 245.950,164.473 245.400 C 164.723 244.850,165.186 244.400,165.502 244.400 C 165.817 244.400,166.163 244.062,166.271 243.649 C 166.379 243.236,166.903 242.699,167.434 242.457 C 167.965 242.215,168.400 241.829,168.400 241.599 C 168.400 241.369,168.867 241.002,169.439 240.785 C 170.010 240.568,170.571 240.033,170.685 239.595 C 170.833 239.030,171.232 238.800,172.066 238.800 C 172.803 238.800,173.583 238.428,174.165 237.800 C 174.821 237.092,175.510 236.800,176.524 236.800 C 177.476 236.800,178.331 236.470,179.078 235.813 C 180.393 234.656,179.280 234.311,177.812 235.421 M154.567 275.600 C 154.567 279.890,154.626 281.645,154.698 279.500 C 154.770 277.355,154.770 273.845,154.698 271.700 C 154.626 269.555,154.567 271.310,154.567 275.600 " stroke="none" fill="#25b4e6" fill-rule="evenodd"></path><path id="path4" d="M92.500 58.665 C 91.846 58.929,91.762 116.809,92.414 118.026 C 92.821 118.787,94.105 118.800,169.406 118.800 C 254.751 118.800,249.963 118.650,255.106 121.491 C 262.386 125.513,267.215 134.922,267.196 145.050 C 267.191 148.179,265.810 155.261,264.867 156.994 C 264.390 157.871,264.000 158.742,264.000 158.931 C 264.000 159.348,262.735 161.042,260.609 163.470 C 258.574 165.794,256.120 167.487,252.600 168.992 L 249.800 170.190 202.800 170.395 C 176.950 170.508,155.588 170.738,155.329 170.906 C 155.070 171.074,152.910 171.479,150.529 171.806 C 148.148 172.133,145.388 172.661,144.395 172.978 C 143.403 173.295,141.715 173.750,140.645 173.990 C 139.575 174.230,137.922 174.780,136.971 175.213 C 136.021 175.646,134.999 176.000,134.700 176.000 C 134.135 176.000,124.752 180.688,124.400 181.146 C 124.290 181.289,122.930 182.248,121.377 183.277 C 113.749 188.331,105.751 197.824,101.033 207.425 C 100.390 208.731,99.617 210.291,99.315 210.892 C 98.796 211.922,98.074 213.855,96.660 218.000 C 95.255 222.121,94.373 225.585,93.966 228.589 C 93.727 230.343,93.382 232.061,93.197 232.406 C 92.012 234.620,91.259 342.668,92.414 344.826 C 92.962 345.851,152.717 346.064,153.563 345.044 C 153.905 344.632,154.013 334.470,153.980 305.742 C 153.956 284.431,154.052 266.456,154.195 265.797 C 157.092 252.394,161.629 244.191,168.857 239.289 C 171.964 237.182,173.169 236.464,174.059 236.193 C 174.576 236.035,175.950 235.477,177.112 234.953 C 178.273 234.429,179.567 234.000,179.987 234.000 C 180.406 234.000,182.246 233.611,184.075 233.135 C 187.344 232.284,188.071 232.265,227.400 232.035 C 249.400 231.906,267.615 231.660,267.878 231.490 C 268.141 231.319,270.211 230.838,272.478 230.419 C 279.583 229.109,286.215 226.626,293.940 222.385 C 306.630 215.418,320.272 198.559,326.296 182.400 C 329.123 174.816,331.494 164.331,332.021 157.083 C 332.725 147.387,332.242 129.741,331.196 126.990 C 330.972 126.399,330.522 124.270,330.197 122.258 C 329.871 120.246,329.244 117.653,328.803 116.496 C 328.361 115.338,327.994 113.988,327.987 113.496 C 327.981 113.003,327.532 111.700,326.991 110.600 C 326.450 109.500,326.006 108.364,326.004 108.075 C 325.995 106.899,321.085 97.093,318.636 93.364 C 318.216 92.724,317.408 91.480,316.842 90.600 C 311.536 82.360,300.964 72.172,293.598 68.200 C 289.839 66.173,285.258 64.000,284.744 64.000 C 284.433 64.000,283.788 63.727,283.311 63.393 C 282.520 62.839,280.573 62.242,274.400 60.664 C 272.161 60.091,267.643 59.369,262.600 58.778 C 259.637 58.430,93.355 58.320,92.500 58.665 M261.400 59.692 C 263.820 60.051,267.600 60.473,269.800 60.629 C 272.653 60.833,274.056 61.114,274.694 61.610 C 275.207 62.009,276.714 62.426,278.230 62.588 C 279.945 62.772,281.125 63.125,281.593 63.593 C 281.990 63.990,283.099 64.443,284.058 64.600 C 285.016 64.756,286.160 65.202,286.600 65.590 C 287.040 65.978,287.940 66.422,288.600 66.577 C 289.260 66.732,290.160 67.185,290.600 67.584 C 291.040 67.982,291.850 68.443,292.400 68.609 C 292.950 68.774,293.909 69.335,294.531 69.855 C 295.153 70.375,296.008 70.800,296.431 70.800 C 296.854 70.800,297.200 71.074,297.200 71.410 C 297.200 71.745,297.630 72.183,298.155 72.383 C 298.680 72.582,299.563 73.163,300.117 73.673 C 300.671 74.183,301.446 74.865,301.840 75.188 C 304.803 77.624,307.100 79.874,309.610 82.800 C 311.215 84.670,312.769 86.344,313.064 86.520 C 313.359 86.696,313.600 87.099,313.600 87.416 C 313.600 87.734,313.960 88.218,314.400 88.493 C 314.840 88.768,315.200 89.194,315.200 89.441 C 315.200 89.688,315.740 90.569,316.400 91.400 C 317.060 92.231,317.600 93.145,317.600 93.432 C 317.600 93.720,317.931 94.190,318.335 94.477 C 318.740 94.765,319.194 95.500,319.346 96.110 C 319.497 96.721,319.966 97.566,320.389 97.989 C 320.812 98.412,321.353 99.481,321.591 100.366 C 321.829 101.250,322.252 102.114,322.532 102.287 C 322.811 102.459,323.261 103.357,323.531 104.282 C 323.801 105.207,324.271 106.214,324.577 106.520 C 324.882 106.825,325.258 107.915,325.412 108.942 C 325.566 109.969,326.024 111.231,326.429 111.746 C 326.834 112.261,327.364 113.921,327.606 115.435 C 327.847 116.949,328.307 118.476,328.626 118.829 C 328.982 119.222,329.353 121.007,329.585 123.443 C 329.793 125.627,330.287 128.132,330.682 129.007 C 331.773 131.428,331.757 159.265,330.662 162.000 C 330.266 162.990,329.781 165.420,329.585 167.400 C 329.365 169.623,328.917 171.606,328.414 172.585 C 327.967 173.456,327.600 174.824,327.600 175.625 C 327.600 176.426,327.180 177.873,326.667 178.840 C 326.153 179.808,325.621 181.297,325.484 182.150 C 325.347 183.002,324.948 184.016,324.598 184.402 C 324.248 184.789,323.770 185.799,323.536 186.646 C 323.302 187.494,322.783 188.604,322.383 189.112 C 321.983 189.621,321.543 190.550,321.405 191.177 C 321.267 191.804,320.805 192.634,320.377 193.021 C 319.950 193.407,319.600 194.028,319.600 194.400 C 319.600 194.772,319.256 195.387,318.837 195.767 C 318.417 196.147,317.845 197.030,317.567 197.729 C 317.289 198.428,316.777 199.307,316.431 199.683 C 316.084 200.059,315.260 201.104,314.600 202.004 C 313.940 202.905,312.905 204.241,312.300 204.974 C 311.695 205.706,311.200 206.412,311.200 206.542 C 311.200 206.671,309.175 208.759,306.700 211.180 C 300.396 217.346,300.556 217.200,300.143 217.200 C 299.938 217.200,299.147 217.733,298.385 218.384 C 297.623 219.035,296.785 219.575,296.523 219.584 C 296.260 219.593,295.810 219.932,295.523 220.339 C 295.235 220.745,294.312 221.303,293.472 221.579 C 292.632 221.855,291.852 222.321,291.739 222.616 C 291.626 222.910,291.017 223.265,290.385 223.403 C 289.754 223.542,288.804 223.996,288.274 224.413 C 287.744 224.830,286.553 225.341,285.627 225.549 C 284.700 225.758,283.641 226.199,283.271 226.531 C 282.902 226.862,281.430 227.344,280.000 227.600 C 278.570 227.856,277.117 228.320,276.772 228.630 C 276.401 228.963,274.451 229.368,272.008 229.618 C 269.733 229.852,267.226 230.343,266.436 230.709 C 265.135 231.313,261.150 231.396,224.200 231.588 C 187.138 231.781,183.308 231.861,182.400 232.462 C 181.850 232.825,180.590 233.241,179.600 233.386 C 177.499 233.693,175.600 234.366,175.600 234.804 C 175.600 234.973,175.002 235.223,174.271 235.360 C 173.540 235.497,172.335 236.057,171.594 236.605 C 170.852 237.152,170.101 237.600,169.926 237.600 C 168.308 237.600,160.651 245.545,159.413 248.507 C 159.101 249.253,158.588 250.078,158.271 250.341 C 157.955 250.603,157.586 251.369,157.452 252.041 C 157.317 252.714,156.866 253.698,156.450 254.227 C 156.034 254.756,155.570 256.179,155.419 257.388 C 155.268 258.598,154.981 259.688,154.783 259.811 C 153.529 260.586,153.449 263.387,153.559 302.800 C 153.619 324.470,153.544 342.695,153.391 343.300 L 153.113 344.400 122.957 344.400 L 92.800 344.400 92.800 291.249 C 92.800 243.935,92.869 237.933,93.426 236.600 C 93.770 235.776,94.251 233.009,94.494 230.451 C 94.764 227.619,95.158 225.539,95.501 225.132 C 95.811 224.765,96.263 223.145,96.505 221.532 C 96.747 219.920,97.263 218.182,97.652 217.672 C 98.041 217.161,98.483 215.922,98.633 214.918 C 98.784 213.915,99.233 212.767,99.631 212.369 C 100.029 211.971,100.480 210.980,100.632 210.168 C 100.785 209.355,101.240 208.360,101.645 207.955 C 102.049 207.551,102.500 206.721,102.646 206.110 C 102.793 205.500,103.245 204.680,103.652 204.289 C 104.058 203.898,104.510 203.088,104.657 202.489 C 104.804 201.890,105.346 201.004,105.862 200.519 C 106.378 200.035,106.800 199.360,106.800 199.019 C 106.800 198.679,106.978 198.400,107.195 198.400 C 107.412 198.400,108.018 197.725,108.540 196.900 C 109.063 196.075,110.235 194.635,111.145 193.700 C 112.055 192.764,112.800 191.750,112.800 191.446 C 112.800 191.142,113.173 190.796,113.630 190.676 C 114.086 190.557,114.557 190.086,114.676 189.630 C 114.796 189.173,115.160 188.800,115.486 188.800 C 115.812 188.800,116.573 188.305,117.177 187.700 C 118.680 186.195,120.322 184.868,121.346 184.331 C 121.815 184.085,122.344 183.639,122.520 183.342 C 122.696 183.044,123.076 182.800,123.365 182.800 C 123.654 182.800,124.569 182.260,125.400 181.600 C 126.231 180.940,127.239 180.400,127.641 180.400 C 128.043 180.400,128.556 180.056,128.781 179.636 C 129.025 179.179,129.821 178.765,130.759 178.607 C 131.622 178.461,132.629 178.010,132.996 177.604 C 133.380 177.180,134.518 176.749,135.676 176.590 C 136.782 176.437,138.007 175.993,138.399 175.601 C 138.848 175.152,140.053 174.785,141.656 174.607 C 143.055 174.452,144.759 174.003,145.443 173.610 C 146.290 173.122,148.007 172.804,150.843 172.610 C 153.129 172.454,156.800 172.036,159.000 171.681 C 162.441 171.126,169.235 171.006,207.600 170.818 C 253.454 170.594,254.000 170.574,254.000 169.154 C 254.000 169.014,254.547 168.791,255.215 168.657 C 257.835 168.133,264.800 161.053,264.800 158.913 C 264.800 158.690,265.152 158.061,265.582 157.514 C 266.011 156.968,266.540 155.423,266.756 154.082 C 266.972 152.741,267.385 151.229,267.674 150.722 C 268.470 149.327,268.373 140.571,267.544 139.000 C 267.197 138.340,266.800 136.814,266.664 135.609 C 266.528 134.404,266.078 132.961,265.664 132.401 C 265.251 131.842,264.772 130.938,264.600 130.392 C 264.292 129.415,263.852 128.769,261.317 125.580 C 258.893 122.530,254.990 119.838,252.343 119.390 C 251.394 119.230,250.171 118.807,249.626 118.449 C 248.722 117.857,241.826 117.791,170.718 117.692 L 92.800 117.584 92.800 88.188 L 92.800 58.792 174.900 58.916 C 248.307 59.027,257.466 59.109,261.400 59.692 " stroke="none" fill="#a4def4" fill-rule="evenodd"></path></g></svg>